<svg xmlns="http://www.w3.org/2000/svg" viewBox="-50 -24.5 273 273"><path d="M92 0q-13 0 -20.75 1.5 -8 1.5 -17.5 5.5 -9.5 4 -14 7 -4.5 3 -9.5 8 -5 5 -9 11.5 -4 6.5 -6 13 -2 6.5 -2.5 15.5 -.5 9 .5 14.5 1 5.5 5.5 14.5 4.5 9 9.5 14 5 5 9.5 8 4.5 3 18.5 8.5 14 5.5 30 9 16 3.5 22.5 6.5 6.5 3 9.75 6.25 3.25 3.25 4.25 5.75 1 2.5 .5 8.5 -.5 6 -4.75 11.5 -4.25 5.25 -10.75 8.25 -6.5 3 -16 3.5 -9.5 .5 -14.5 -.5 -5 -1 -10.5 -3.5 -5.5 -2.5 -9.25 -5.75 -3.75 -3.25 -6.25 -7.25 -2.5 -4 -3.5 -10 -1 -6 -3 -9.5 -2 -3.5 -4.5 -5.5 -2.5 -2 -6.5 -3.5 -4 -1.5 -8 -1.5 -4 0 -7.5 1 -3.5 1 -8 4.5 -4.5 3.5 -7 9.5 -2.5 6 -2.5 10.25 0 4.5 1.5 10.25 1.5 6 6 14 4.5 8 11 14.5 6.5 6.5 11 9.5 4.5 3 10.5 6 6 3 17.5 6 11.5 3 27 3.5 15.5 .5 22 -.5 6.5 -1 16 -4 9.5 -3 17.5 -8 8 -5 13 -10 5 -5 9 -11.5 4 -6.5 6 -12.5 2 -6 3 -12.5 1 -6.5 0 -16 -1 -9.5 -2.5 -14 -1.5 -4.5 -5.5 -11 -4 -6.5 -8 -10.5 -4 -4 -8.5 -7 -4.5 -3 -14 -7 -9.5 -4 -28 -8.5 -18.5 -4.5 -27.5 -8 -9 -3.5 -12.75 -8.25 -3.75 -4.75 -3.75 -11 0 -6 4.25 -11.5 4.25 -5.25 10.25 -7.75 6 -2.5 15 -2.5 9 0 13.5 1.5 4.5 1.5 9.25 5.75 4.75 4.25 6.25 9.5 1.5 5 4.5 9.25 3 4 7.5 6 4.5 2 10 2 5.5 0 9.5 -2 4 -2 7 -5 3 -3 4.5 -7 1.5 -4 1.5 -8.5 0 -4.5 -1.5 -10 -1.5 -5.5 -5.5 -12 -4 -6.5 -7 -9.5 -3 -3 -10 -7.5 -7 -4.5 -12 -6.5 -5 -2 -14.5 -4 -9.5 -2 -22.25 -2z" fill="#F2F6F3"/></svg>
